# xmcd CD database file
#
# Track frame offsets:
#	150
#	20958
#	61363
#	80987
#	95642
#	110848
#	124767
#	146509
#	165532
#	179170
#	195292
#	212196
#	225354
#	239558
#
# Disc length: 3375 seconds
#
# Revision: 0
# Processed by: cddbd v1.5.2PL0 Copyright (c) Steve Scherf et al.
# Submitted via: CDex 1.51
#
DISCID=d20d2d0e
DTITLE=Various Artist - The Jazz Ladies - Volume 4
DYEAR=2005
DGENRE=Jazz
TTITLE0=Carmen McRae - Burst In With The Dawn
TTITLE1=Carmen McRae - Everything Must Change
TTITLE2=Carmen McRae - I'm Coming Home
TTITLE3=Bessie Smith - St. Luis Blues
TTITLE4=Bessie Smith - Sorrowful Blues
TTITLE5=Bessie Smith - Baby Doll
TTITLE6=Carol Sloane - My Foolish Heart
TTITLE7=Carol Sloane - As Time Goes By
TTITLE8=Carol Sloane - I Only Have Eyes For You
TTITLE9=Carol Sloane - Where Or When
TTITLE10=Ella Fitzgerald - It's A Blue World
TTITLE11=Ella Fitzgerald - Saving Myself For You
TTITLE12=Ella Fitzgerald - You Can't Be Mine
TTITLE13=Ella Fitzgerald - Sugar Blues
EXTD=YEAR: 2005
EXTT0=
EXTT1=
EXTT2=
EXTT3=
EXTT4=
EXTT5=
EXTT6=
EXTT7=
EXTT8=
EXTT9=
EXTT10=
EXTT11=
EXTT12=
EXTT13=
PLAYORDER=
